<svg id="Layer_1" data-name="Layer 1" xmlns="http://www.w3.org/2000/svg" viewBox="0 0 313.57 86.04"><defs><style>.cls-1{fill:#5d091d;stroke:#5d091d;stroke-miterlimit:10;}.cls-2{fill:#fff;}.cls-3{font-size:33.67px;font-family:PollerOne-Regular, Poller One;}.cls-3,.cls-4{fill:#f9c21a;}</style></defs><rect class="cls-1" x="0.5" y="0.5" width="312.57" height="85.04"/><path class="cls-2" d="M143,60.29l-2.2,5.58h-1.2L146,50h1.13l6.37,15.89h-1.2L150,60.29Zm6.69-1-2.24-5.59a26.64,26.64,0,0,1-.87-2.52h0a23.79,23.79,0,0,1-.87,2.45l-2.26,5.66Z" transform="translate(0.65 0.02)"/><path class="cls-2" d="M157,58.21c0-1.22,0-2.43-.1-3.65h1.06L158,57H158a3.73,3.73,0,0,1,3.47-2.73,2,2,0,0,1,.54.07v1.06a2.73,2.73,0,0,0-.66,0c-1.58,0-2.78,1.32-3.16,3.28a5.53,5.53,0,0,0-.12,1.1v6.13H157Z" transform="translate(0.65 0.02)"/><path class="cls-2" d="M174,65.33a8.83,8.83,0,0,1-3.8.83,5.66,5.66,0,0,1-6-5.78c0-3.77,2.81-6.1,6.44-6.1a6.75,6.75,0,0,1,3.44.8l-.42.94a6.09,6.09,0,0,0-3.12-.75c-3.37,0-5.18,2.21-5.18,5a4.76,4.76,0,0,0,5,4.93,7.5,7.5,0,0,0,3.31-.76Z" transform="translate(0.65 0.02)"/><path class="cls-2" d="M177.93,49h1.16v7.85h0A4.42,4.42,0,0,1,180.88,55a4.93,4.93,0,0,1,2.55-.73c1.08,0,4.4.47,4.4,5.13v6.46h-1.15V59.46c0-2.19-.94-4.17-3.56-4.17A4.27,4.27,0,0,0,179.28,58a3.08,3.08,0,0,0-.19,1.21v6.71h-1.16Z" transform="translate(0.65 0.02)"/><path class="cls-2" d="M194.34,51.21a1,1,0,0,1-1,1,1,1,0,0,1-.92-1,1,1,0,0,1,1-1A1,1,0,0,1,194.34,51.21Zm-1.53,14.66V54.56H194V65.87Z" transform="translate(0.65 0.02)"/><path class="cls-2" d="M199.05,57.29c0-.92,0-1.81-.09-2.73H200l.1,2.26h0a4.81,4.81,0,0,1,4.36-2.54c1,0,4.41.47,4.41,5.16v6.43H207.8V59.44c0-2.22-1-4.17-3.56-4.17A4.14,4.14,0,0,0,200.4,58a3.09,3.09,0,0,0-.19,1v6.9h-1.16Z" transform="translate(0.65 0.02)"/><path class="cls-2" d="M214,60.22c0,3.3,2.09,5,4.78,5a7.82,7.82,0,0,0,3.63-.71l.31.92a9.09,9.09,0,0,1-4.06.78,5.46,5.46,0,0,1-5.8-5.66c0-3.84,2.46-6.22,5.66-6.22,4.2,0,4.93,3.72,4.93,5.23a2.7,2.7,0,0,1,0,.71Zm8.25-.92a3.73,3.73,0,0,0-3.87-4.08,4.37,4.37,0,0,0-4.31,4.08Z" transform="translate(0.65 0.02)"/><path class="cls-2" d="M227.6,60.22c0,3.3,2.09,5,4.78,5a7.82,7.82,0,0,0,3.63-.71l.31.92a9.09,9.09,0,0,1-4.06.78,5.46,5.46,0,0,1-5.8-5.66c0-3.84,2.46-6.22,5.66-6.22,4.2,0,4.93,3.72,4.93,5.23a2.7,2.7,0,0,1-.05.71Zm8.25-.92A3.73,3.73,0,0,0,232,55.22a4.37,4.37,0,0,0-4.31,4.08Z" transform="translate(0.65 0.02)"/><path class="cls-2" d="M241.13,58.21c0-1.22,0-2.43-.1-3.65h1.06l0,2.45h.07a3.73,3.73,0,0,1,3.46-2.73,2,2,0,0,1,.55.07v1.06a2.77,2.77,0,0,0-.66,0c-1.58,0-2.78,1.32-3.16,3.28a5.53,5.53,0,0,0-.12,1.1v6.13h-1.15Z" transform="translate(0.65 0.02)"/><path class="cls-2" d="M249.14,64.34a5.45,5.45,0,0,0,2.83.85c2,0,2.85-1,2.85-2.19,0-1.32-.9-2-2.66-2.52-2-.66-3.07-1.73-3.07-3.07,0-1.6,1.28-3.13,3.73-3.13a4.93,4.93,0,0,1,2.73.75l-.45.94a4.29,4.29,0,0,0-2.5-.73,2.11,2.11,0,0,0-2.38,2c0,1.27,1,1.77,2.64,2.33,2.08.71,3.09,1.61,3.09,3.3s-1.51,3.26-4.08,3.26a6.31,6.31,0,0,1-3.16-.83Z" transform="translate(0.65 0.02)"/><text class="cls-3" transform="translate(100.31 40.18)">SYNAPSE</text><polygon class="cls-4" points="33.86 59.12 20.33 59.12 16.48 65.91 37.8 65.88 63.01 22.22 78.74 22.22 82.67 15.42 59.08 15.42 33.86 59.12"/><polygon class="cls-2" points="45.66 65.89 66.97 29.01 74.8 29.01 53.5 65.89 45.66 65.89"/><polygon class="cls-2" points="80.52 60.19 64.67 60.19 68.6 53.38 76.6 53.38 72.59 46.46 76.52 39.66 91.64 65.85 83.82 65.89 80.52 60.19"/></svg>